<?xml version="1.0" encoding="UTF-8"?>
<svg width="100pt" height="100pt" version="1.1" viewBox="0 0 100 100" xmlns="http://www.w3.org/2000/svg">
 <path d="m92.836 88.414-26-26c7.6055-9.1367 9.9414-21.562 6.1719-32.836-3.7695-11.277-13.105-19.801-24.68-22.527-11.574-2.7266-23.734 0.73047-32.141 9.1367s-11.863 20.566-9.1367 32.141c2.7266 11.574 11.25 20.91 22.527 24.68 11.273 3.7695 23.699 1.4336 32.836-6.1719l26 26c1.2266 1.1836 3.1758 1.1641 4.3828-0.039063 1.2031-1.207 1.2227-3.1562 0.039063-4.3828zm-52.324-19.887c-7.4297 0-14.555-2.9492-19.809-8.2031-5.2539-5.2539-8.207-12.383-8.207-19.812 0-7.4297 2.9531-14.555 8.207-19.809s12.379-8.207 19.809-8.207c7.4297 0 14.559 2.9531 19.812 8.207 5.2539 5.2539 8.2031 12.379 8.2031 19.809-0.007813 7.4297-2.9609 14.551-8.2148 19.801-5.25 5.2539-12.371 8.207-19.801 8.2148z"/>
</svg>
