<?xml version="1.0" encoding="UTF-8"?>
<svg width="100pt" height="100pt" version="1.1" viewBox="0 0 100 100" xmlns="http://www.w3.org/2000/svg">
 <g fill="#fff">
  <path d="m76.777 46.926c4.2109 0 7.6367-3.4258 7.6367-7.6367 0-4.2109-3.4258-7.6367-7.6367-7.6367-4.2109 0-7.6367 3.4258-7.6367 7.6367 0 4.2109 3.4258 7.6367 7.6367 7.6367z"/>
  <path d="m15.258 49.508c-3.7461 0-6.1953 2.207-6.3867 5.7578 0 0.039063-0.007813 0.078125-0.015625 0.11328v15.684h23.977v-15.824c0-0.0625 0.011719-0.12109 0.03125-0.17969 0.13281-1.8711 0.82422-3.4492 2.0195-4.6055-1.0195-0.61719-2.2852-0.94141-3.6992-0.94141z"/>
  <path d="m23.219 46.926c4.2109 0 7.6367-3.4258 7.6367-7.6367 0-4.2109-3.4258-7.6367-7.6367-7.6367s-7.6367 3.4258-7.6367 7.6367c0 4.2109 3.4258 7.6367 7.6367 7.6367z"/>
  <path d="m57.961 50.551h-15.922c-3.7461 0-6.1914 2.207-6.3867 5.7578-0.003906 0.039062-0.007813 0.074218-0.019532 0.10938v15.688h28.734v-15.684c-0.011719-0.035156-0.019532-0.074219-0.019532-0.11328-0.19531-3.5508-2.6406-5.7578-6.3867-5.7578z"/>
  <path d="m50 48.262c5.6172 0 10.184-4.5703 10.184-10.184s-4.5664-10.184-10.184-10.184c-5.6133 0-10.184 4.5703-10.184 10.184s4.5664 10.184 10.184 10.184z"/>
  <path d="m91.129 55.266c-0.19531-3.5508-2.6406-5.7578-6.3867-5.7578l-15.918 0.003907c-1.4141 0-2.6797 0.32422-3.7031 0.94141 1.1953 1.1602 1.8867 2.7383 2.0195 4.6172 0.019531 0.054688 0.03125 0.10938 0.03125 0.16797v15.828h23.973v-15.688c-0.007812-0.039062-0.015625-0.074218-0.015625-0.11328z"/>
 </g>
</svg>
