<?xml version="1.0" encoding="UTF-8"?>
<svg width="100pt" height="100pt" version="1.1" viewBox="0 0 100 100" xmlns="http://www.w3.org/2000/svg">
 <g>
  <path d="m44.629 83.828c3.4102-1.4688 7.3281-1.4688 10.738 0 2.8789 1.2383 5.8516 1.8398 8.6289 1.8398 4.0117 0 7.6406-1.2617 10.09-3.7109 5.8281-5.8281 4.5898-16.551-2.7617-23.898-0.62109-0.62109-1.2812-1.2109-1.9688-1.7617-1.8086-1.4492-3.4219-3.3281-4.9297-5.7617-3.2383-5.2188-8.6406-8.3398-14.43-8.3398-5.7891 0-11.191 3.1211-14.43 8.3398-1.5117 2.4297-3.1211 4.3203-4.9297 5.7617-0.67969 0.55078-1.3398 1.1406-1.9688 1.7617-7.3516 7.3516-8.5898 18.07-2.7617 23.898 4.1484 4.1484 11.672 4.8984 18.719 1.8711zm-13.129-22.941c0.51953-0.51953 1.0703-1.0117 1.6406-1.4688 2.1719-1.7383 4.0703-3.9492 5.8281-6.7812 2.5117-4.0391 6.6289-6.4492 11.031-6.4492 4.3984 0 8.5195 2.4102 11.031 6.4492 1.75 2.8203 3.6602 5.0391 5.8281 6.7695 0.57031 0.46094 1.1211 0.94922 1.6406 1.4688 5.7891 5.7891 7.0312 13.98 2.7617 18.25-2.9492 2.9492-8.8398 3.3711-14.32 1.0195-4.4102-1.8906-9.4805-1.8906-13.891 0-5.4805 2.3516-11.359 1.9297-14.32-1.0195-4.2695-4.2695-3.0312-12.449 2.7617-18.25z"/>
  <path d="m28.031 29.16c0.35938 3.5508 1.75 6.8086 3.8984 9.1719 2.0703 2.2695 4.6289 3.4883 7.2812 3.4883 0.28906 0 0.58984-0.011718 0.89062-0.050781 2.9688-0.30078 5.5586-2.0898 7.3086-5.0312 1.6289-2.75 2.3281-6.2188 1.9688-9.7695s-1.75-6.8086-3.8984-9.1719c-2.3008-2.5195-5.2109-3.75-8.1719-3.4414-2.9688 0.30078-5.5586 2.0898-7.3086 5.0312-1.6289 2.75-2.3281 6.2188-1.9688 9.7695zm5.4102-7.7188c1.0781-1.8203 2.6016-2.9219 4.2695-3.0898 0.14844-0.019531 0.30859-0.019531 0.46094-0.019531 1.5195 0 3.0508 0.76172 4.3516 2.1797 1.5781 1.7305 2.6016 4.1719 2.8789 6.8789 0.28125 2.7109-0.23047 5.3008-1.4297 7.3203-1.0781 1.8203-2.6016 2.9219-4.2695 3.0898-1.6797 0.17188-3.3789-0.60156-4.8086-2.1602-1.5781-1.7305-2.6016-4.1719-2.8789-6.8789-0.28125-2.7109 0.23047-5.3008 1.4297-7.3203z"/>
  <path d="m19.43 31.93c-5.8906 0.60156-10.078 6.9219-9.3516 14.07 0.69141 6.7891 5.5703 11.941 11.102 11.941 0.30078 0 0.60156-0.019531 0.91016-0.050781 5.8906-0.60156 10.078-6.9219 9.3516-14.07-0.73047-7.1602-6.1211-12.5-12-11.891zm2.25 21.988c-3.6992 0.37891-7.1094-3.3594-7.6211-8.3203-0.51172-4.9609 2.0781-9.3086 5.7812-9.6914 0.17188-0.019531 0.33984-0.03125 0.51953-0.03125 3.4883 0 6.6211 3.6094 7.1016 8.3516 0.51172 4.9609-2.0781 9.3086-5.7695 9.6914z"/>
  <path d="m62.699 14.371c-2.9688-0.30859-5.8711 0.92188-8.1719 3.4414-2.1484 2.3594-3.5391 5.6094-3.8984 9.1719-0.35938 3.5508 0.33984 7.0195 1.9688 9.7695 1.75 2.9414 4.3398 4.7188 7.3086 5.0312 0.30078 0.03125 0.58984 0.050782 0.89062 0.050782 2.6484 0 5.2109-1.2188 7.2812-3.4883 2.1484-2.3594 3.5391-5.6094 3.8984-9.1719 0.35938-3.5508-0.33984-7.0195-1.9688-9.7695-1.75-2.9414-4.3398-4.7188-7.3086-5.0312zm5.2891 14.391c-0.28125 2.6992-1.3008 5.1484-2.8789 6.8789-1.4297 1.5586-3.1289 2.3281-4.8086 2.1602-1.6719-0.17188-3.1914-1.2695-4.2695-3.0898-1.1992-2.0117-1.6992-4.6094-1.4297-7.3203 0.28125-2.6992 1.3008-5.1484 2.8789-6.8789 1.3008-1.4219 2.8281-2.1797 4.3516-2.1797 0.14844 0 0.30859 0 0.46094 0.019531 1.6719 0.17188 3.1914 1.2695 4.2695 3.0898 1.1992 2.0117 1.6992 4.6094 1.4297 7.3203z"/>
  <path d="m78.82 57.949c5.5195 0 10.398-5.1484 11.102-11.941 0.73047-7.1602-3.4609-13.469-9.3516-14.07-5.8789-0.60938-11.27 4.7305-12 11.891-0.73047 7.1602 3.4609 13.469 9.3516 14.07 0.30078 0.03125 0.60938 0.050781 0.91016 0.050781zm-6.2695-13.719c0.48047-4.7305 3.6094-8.3516 7.1016-8.3516 0.17188 0 0.33984 0 0.51953 0.03125 3.6914 0.37891 6.2812 4.7188 5.7812 9.6914-0.51172 4.9609-3.9297 8.6992-7.6211 8.3203-3.6914-0.37891-6.2812-4.7188-5.7695-9.6914z"/>
 </g>
</svg>
