<?xml version="1.0" encoding="UTF-8"?>
<svg width="128pt" height="128pt" version="1.1" viewBox="0 0 128 128" xmlns="http://www.w3.org/2000/svg">
 <g>
  <path d="m57.125 107.3c4.3633-1.8828 9.3828-1.8828 13.746 0 3.6875 1.5859 7.4883 2.3555 11.047 2.3555 5.1328 0 9.7773-1.6133 12.914-4.75 7.4609-7.4609 5.875-21.184-3.5312-30.594-0.79297-0.79297-1.6367-1.5469-2.5234-2.2539-2.3164-1.8555-4.3789-4.2617-6.3086-7.3711-4.1484-6.6797-11.059-10.676-18.469-10.676s-14.324 3.9922-18.469 10.676c-1.9336 3.1094-3.9922 5.5312-6.3086 7.3711-0.87109 0.70312-1.7148 1.4609-2.5234 2.2539-9.4062 9.4062-10.996 23.129-3.5312 30.594 5.3125 5.3125 14.938 6.2734 23.961 2.3945zm-16.805-29.363c0.66406-0.66406 1.3711-1.293 2.0977-1.8828 2.7773-2.2266 5.2109-5.0547 7.4609-8.6797 3.2109-5.1719 8.4883-8.2578 14.117-8.2578 5.6328 0 10.906 3.0859 14.117 8.2578 2.2383 3.6094 4.6836 6.4531 7.4609 8.6641 0.73047 0.58984 1.4336 1.2148 2.0977 1.8828 7.4102 7.4102 9 17.895 3.5312 23.359-3.7773 3.7773-11.316 4.3125-18.328 1.3047-5.6445-2.418-12.133-2.418-17.777 0-7.0156 3.0078-14.539 2.4688-18.328-1.3047-5.4648-5.4648-3.8789-15.938 3.5312-23.359z"/>
  <path d="m35.879 37.324c0.46094 4.543 2.2383 8.7188 4.9922 11.738 2.6484 2.9062 5.9258 4.4688 9.3203 4.4688 0.37109 0 0.75391-0.011719 1.1406-0.0625 3.8008-0.38281 7.1172-2.6758 9.3555-6.4375 2.0859-3.5195 2.9805-7.9609 2.5234-12.504-0.46094-4.543-2.2383-8.7188-4.9922-11.738-2.9453-3.2266-6.668-4.8008-10.457-4.4023-3.8008 0.38281-7.1172 2.6758-9.3555 6.4375-2.0859 3.5195-2.9805 7.9609-2.5234 12.504zm6.9258-9.8828c1.3828-2.3281 3.3281-3.7383 5.4648-3.957 0.19141-0.027344 0.39844-0.027344 0.58984-0.027344 1.9453 0 3.9023 0.97266 5.5664 2.7891 2.0234 2.2148 3.3281 5.3359 3.6875 8.8047s-0.29297 6.7852-1.832 9.3711c-1.3828 2.3281-3.3281 3.7383-5.4648 3.957-2.1523 0.21875-4.3281-0.76953-6.1562-2.7656-2.0234-2.2148-3.3281-5.3359-3.6875-8.8047s0.29297-6.7852 1.832-9.3711z"/>
  <path d="m24.871 40.871c-7.5391 0.76953-12.902 8.8594-11.969 18.008 0.88281 8.6914 7.1289 15.281 14.207 15.281 0.38281 0 0.76953-0.027344 1.1641-0.0625 7.5391-0.76953 12.902-8.8594 11.969-18.008-0.93359-9.1641-7.832-16-15.359-15.219zm2.8789 28.148c-4.7344 0.48828-9.1016-4.3008-9.7539-10.648s2.6641-11.918 7.3984-12.402c0.21875-0.027344 0.43359-0.039062 0.66406-0.039062 4.4688 0 8.4727 4.6211 9.0898 10.688 0.65234 6.3477-2.6641 11.918-7.3867 12.402z"/>
  <path d="m80.258 18.395c-3.8008-0.39844-7.5117 1.1758-10.457 4.4023-2.7539 3.0195-4.5312 7.1797-4.9922 11.738-0.46094 4.543 0.43359 8.9844 2.5234 12.504 2.2383 3.7617 5.5547 6.043 9.3555 6.4375 0.38281 0.039063 0.75391 0.0625 1.1406 0.0625 3.3906 0 6.668-1.5625 9.3203-4.4688 2.7539-3.0195 4.5312-7.1797 4.9922-11.738 0.46094-4.543-0.43359-8.9844-2.5234-12.504-2.2383-3.7617-5.5547-6.043-9.3555-6.4375zm6.7695 18.418c-0.35938 3.457-1.6641 6.5938-3.6875 8.8047-1.832 1.9961-4.0078 2.9805-6.1562 2.7656-2.1367-0.21875-4.082-1.625-5.4648-3.957-1.5352-2.5742-2.1758-5.9023-1.832-9.3711 0.35938-3.457 1.6641-6.5938 3.6875-8.8047 1.6641-1.8164 3.6211-2.7891 5.5664-2.7891 0.19141 0 0.39844 0 0.58984 0.027343 2.1367 0.21875 4.082 1.625 5.4648 3.957 1.5352 2.5742 2.1758 5.9023 1.832 9.3711z"/>
  <path d="m100.89 74.176c7.0664 0 13.312-6.5938 14.207-15.281 0.93359-9.1641-4.4297-17.242-11.969-18.008-7.5273-0.78125-14.426 6.0547-15.359 15.219-0.93359 9.1641 4.4297 17.242 11.969 18.008 0.38281 0.039063 0.78125 0.0625 1.1641 0.0625zm-8.0273-17.562c0.61328-6.0547 4.6211-10.688 9.0898-10.688 0.21875 0 0.43359 0 0.66406 0.039063 4.7227 0.48828 8.0391 6.043 7.3984 12.402-0.65234 6.3477-5.0312 11.137-9.7539 10.648-4.7227-0.48828-8.0391-6.043-7.3867-12.402z"/>
 </g>
</svg>
