<?xml version="1.0" encoding="UTF-8"?>
<svg width="100pt" height="100pt" version="1.1" viewBox="0 0 100 100" xmlns="http://www.w3.org/2000/svg">
 <g>
  <path d="m84.285 18.965c-1.2969-1.3008-3.0195-2.0156-4.8555-2.0195l-17.434-0.03125-0.24219-3.168c-0.019531-1.6445-0.67188-3.1875-1.8359-4.3516-1.1797-1.1875-2.7578-1.8438-4.4375-1.8477l-10.906-0.019531h-0.011719c-1.6758 0-3.25 0.64844-4.4375 1.832-1.1641 1.1602-1.8203 2.6992-1.8477 4.3438l-0.25391 3.1641-17.445-0.03125c-3.7812 0-6.8633 3.0742-6.8672 6.8555l-0.003907 0.68359c0 0.64453 0.25391 1.2656 0.71094 1.7188 0.45312 0.45703 1.0703 0.71484 1.7188 0.71484l67.719 0.11719h0.003906c1.3398 0 2.4258-1.0859 2.4297-2.4258l0.003907-0.6875c0-1.8203-0.71484-3.5469-2.0078-4.8477zm-41.52-4.9766c0.003906-0.058593 0.007813-0.11719 0.007813-0.17578 0-0.48047 0.1875-0.92969 0.52734-1.2656 0.33984-0.33594 0.78516-0.52344 1.2656-0.52344h0.003906l10.906 0.019531c0.48047 0 0.92969 0.1875 1.2656 0.52734 0.33984 0.33984 0.52344 0.78906 0.52344 1.2695 0 0.058594 0.003906 0.11719 0.007813 0.17578l0.22266 2.8945-14.961-0.03125z"/>
  <path d="m80.52 29.445h-61.504c-1.8945 0-3.4297 1.5352-3.4297 3.4297s1.5352 3.4297 3.4297 3.4297h0.58203l6.6133 50.949c0.22266 1.7266 1.6914 3.0195 3.4336 3.0195h40.129c1.7422 0 3.2109-1.2969 3.4336-3.0195l6.5195-50.945h0.79688c1.8945 0 3.4297-1.5352 3.4297-3.4297-0.007813-1.8984-1.543-3.4336-3.4336-3.4336zm-44 53.02c-0.039062 0.003906-0.078125 0.003906-0.11328 0.003906-1.0625 0-1.9531-0.82812-2.0117-1.9023l-1.6133-28.848c-0.0625-1.1133 0.78906-2.0625 1.9023-2.125 1.1133-0.0625 2.0625 0.78906 2.125 1.8984l1.6133 28.848c0.058594 1.1055-0.79297 2.0586-1.9023 2.125zm15.262-2.0156c0 1.1133-0.90234 2.0156-2.0156 2.0156s-2.0156-0.90234-2.0156-2.0156v-28.848c0-1.1133 0.90234-2.0156 2.0156-2.0156s2.0156 0.90234 2.0156 2.0156zm14.977-28.734-1.6133 28.848c-0.058593 1.0742-0.94922 1.9023-2.0117 1.9023-0.039062 0-0.078124 0-0.11328-0.003906-1.1094-0.0625-1.9648-1.0156-1.9023-2.1289l1.6133-28.848c0.0625-1.1094 1.0156-1.9648 2.125-1.8984 1.1133 0.066406 1.9609 1.0156 1.9023 2.1289z"/>
 </g>
</svg>
