<?xml version="1.0" encoding="UTF-8"?>
<svg width="512pt" height="512pt" version="1.1" viewBox="0 0 512 512" xmlns="http://www.w3.org/2000/svg">
 <g>
  <path d="m273.32 146.92c-10.996 4.7383-23.633 4.7383-34.629 0-9.2852-4-18.863-5.9336-27.828-5.9336-12.93 0-24.633 4.0625-32.535 11.961-18.797 18.797-14.801 53.363 8.8984 77.062 2 2 4.1289 3.9023 6.3516 5.6758 5.8359 4.6758 11.027 10.738 15.895 18.574 10.445 16.832 27.859 26.891 46.527 26.891 18.668 0 36.082-10.059 46.527-26.891 4.8672-7.8359 10.059-13.93 15.895-18.574 2.1914-1.7734 4.3203-3.6758 6.3516-5.6758 23.699-23.699 27.699-58.266 8.8984-77.062-13.383-13.383-37.629-15.801-60.359-6.0312zm42.336 73.969c-1.6758 1.6758-3.4492 3.2578-5.2891 4.7383-6.9961 5.6094-13.125 12.734-18.797 21.859-8.0938 13.027-21.379 20.797-35.566 20.797s-27.473-7.7695-35.566-20.797c-5.6445-9.0938-11.801-16.25-18.797-21.828-1.8398-1.4844-3.6094-3.0625-5.2891-4.7383-18.668-18.668-22.668-45.078-8.8984-58.844 9.5117-9.5117 28.504-10.867 46.172-3.2891 14.219 6.0938 30.566 6.0938 44.785 0 17.668-7.5781 36.629-6.2227 46.172 3.2891 13.77 13.77 9.7695 40.145-8.8984 58.844z"/>
  <path d="m326.84 323.2c-1.1602-11.445-5.6445-21.957-12.574-29.566-6.6758-7.3203-14.93-11.254-23.473-11.254-0.93359 0-1.9023 0.03125-2.8711 0.16016-9.5781 0.96875-17.926 6.7383-23.57 16.219-5.2539 8.8672-7.5117 20.055-6.3516 31.504 1.1602 11.445 5.6445 21.957 12.574 29.566 7.418 8.125 16.801 12.09 26.344 11.094 9.5781-0.96875 17.926-6.7383 23.57-16.219 5.2539-8.8672 7.5117-20.055 6.3516-31.504zm-17.445 24.891c-3.4805 5.8672-8.3828 9.4141-13.77 9.9648-0.48438 0.066407-1 0.066407-1.4844 0.066407-4.9023 0-9.8359-2.4492-14.027-7.0273-5.0938-5.5781-8.3828-13.445-9.2852-22.184s0.74219-17.09 4.6094-23.602c3.4805-5.8672 8.3828-9.4141 13.77-9.9648 5.418-0.54688 10.898 1.9336 15.508 6.9648 5.0938 5.5781 8.3828 13.445 9.2852 22.184s-0.74219 17.09-4.6094 23.602z"/>
  <path d="m354.57 314.27c18.992-1.9336 32.5-22.312 30.148-45.367-2.2266-21.895-17.961-38.5-35.789-38.5-0.96875 0-1.9336 0.066406-2.9336 0.16016-18.992 1.9336-32.5 22.312-30.148 45.367 2.3555 23.086 19.734 40.305 38.691 38.336zm-7.2539-70.902c11.93-1.2266 22.926 10.832 24.57 26.828 1.6445 15.992-6.707 30.02-18.637 31.246-0.54688 0.066406-1.0977 0.097656-1.6758 0.097656-11.254 0-21.344-11.641-22.895-26.922-1.6445-15.992 6.707-30.02 18.605-31.246z"/>
  <path d="m215.05 370.88c9.5781 1 18.926-2.9648 26.344-11.094 6.9336-7.6094 11.414-18.09 12.574-29.566 1.1602-11.445-1.0977-22.637-6.3516-31.504-5.6445-9.4805-13.992-15.219-23.57-16.219-0.96875-0.097656-1.9023-0.16016-2.8711-0.16016-8.543 0-16.801 3.9336-23.473 11.254-6.9336 7.6094-11.414 18.09-12.574 29.566-1.1602 11.445 1.0977 22.637 6.3516 31.504 5.6445 9.4805 13.992 15.219 23.57 16.219zm-17.059-46.398c0.90234-8.707 4.1914-16.605 9.2852-22.184 4.6094-5.0312 10.094-7.5117 15.508-6.9648 5.3828 0.54687 10.285 4.0938 13.77 9.9648 3.8711 6.4805 5.4805 14.863 4.6094 23.602-0.90234 8.707-4.1914 16.605-9.2852 22.184-4.1914 4.5781-9.125 7.0273-14.027 7.0273-0.48437 0-1 0-1.4844-0.066406-5.3828-0.54688-10.285-4.0938-13.77-9.9648-3.8711-6.4805-5.4805-14.863-4.6094-23.602z"/>
  <path d="m163.07 230.37c-17.797 0-33.535 16.605-35.789 38.5-2.3555 23.086 11.156 43.434 30.148 45.367 18.961 1.9688 36.34-15.25 38.691-38.336 2.3555-23.086-11.156-43.434-30.148-45.367-0.96875-0.097656-1.9688-0.16016-2.9336-0.16016zm20.219 44.238c-1.5469 15.25-11.641 26.922-22.895 26.922-0.54688 0-1.0977 0-1.6758-0.097656-11.898-1.2266-20.25-15.219-18.637-31.246 1.6445-15.992 12.672-28.051 24.57-26.828 11.898 1.2266 20.25 15.219 18.605 31.246z"/>
 </g>
</svg>
